<?xml version="1.0" encoding="UTF-8" standalone="no"?>
<!-- Created with Inkscape (http://www.inkscape.org/) -->

<svg
   width="38.198315mm"
   height="6.5985637mm"
   viewBox="0 0 38.198315 6.5985637"
   version="1.1"
   id="svg1"
   inkscape:version="1.3.2 (091e20e, 2023-11-25, custom)"
   sodipodi:docname="StockManager.svg"
   xmlns:inkscape="http://www.inkscape.org/namespaces/inkscape"
   xmlns:sodipodi="http://sodipodi.sourceforge.net/DTD/sodipodi-0.dtd"
   xmlns="http://www.w3.org/2000/svg"
   xmlns:svg="http://www.w3.org/2000/svg">
  <sodipodi:namedview
     id="namedview1"
     pagecolor="#ffffff"
     bordercolor="#000000"
     borderopacity="0.25"
     inkscape:showpageshadow="2"
     inkscape:pageopacity="0.0"
     inkscape:pagecheckerboard="0"
     inkscape:deskcolor="#d4d4d4"
     inkscape:document-units="mm"
     showborder="false"
     showguides="true"
     inkscape:zoom="0.4499037"
     inkscape:cx="-3011.7556"
     inkscape:cy="17744.908"
     inkscape:window-width="2560"
     inkscape:window-height="1377"
     inkscape:window-x="-8"
     inkscape:window-y="-8"
     inkscape:window-maximized="1"
     inkscape:current-layer="layer1" />
  <defs
     id="defs1">
    <linearGradient
       id="swatch118"
       inkscape:swatch="solid">
      <stop
         style="stop-color:#0054db;stop-opacity:1;"
         offset="0"
         id="stop118" />
    </linearGradient>
    <linearGradient
       id="swatch116"
       inkscape:swatch="solid">
      <stop
         style="stop-color:#ffffff;stop-opacity:1;"
         offset="0"
         id="stop116" />
    </linearGradient>
    <linearGradient
       id="swatch115"
       inkscape:swatch="solid">
      <stop
         style="stop-color:#737373;stop-opacity:1;"
         offset="0"
         id="stop115" />
    </linearGradient>
    <linearGradient
       id="swatch114"
       inkscape:swatch="solid">
      <stop
         style="stop-color:#2f4a75;stop-opacity:1;"
         offset="0"
         id="stop114" />
    </linearGradient>
    <linearGradient
       id="swatch113"
       inkscape:swatch="solid">
      <stop
         style="stop-color:#292d33;stop-opacity:1;"
         offset="0"
         id="stop113" />
    </linearGradient>
    <linearGradient
       id="swatch112"
       inkscape:swatch="solid">
      <stop
         style="stop-color:#0054db;stop-opacity:1;"
         offset="0"
         id="stop112" />
    </linearGradient>
    <linearGradient
       id="swatch111"
       inkscape:swatch="solid">
      <stop
         style="stop-color:#2f4a75;stop-opacity:1;"
         offset="0"
         id="stop111" />
    </linearGradient>
  </defs>
  <g
     inkscape:label="Camada 1"
     inkscape:groupmode="layer"
     id="layer1"
     transform="translate(655.06184,-4525.4364)">
    <g
       id="g11"
       transform="matrix(0.2368458,0,0,0.2368458,-821.89722,3597.6454)"
       inkscape:export-filename="g11.png"
       inkscape:export-xdpi="96"
       inkscape:export-ydpi="96">
      <path
         id="path5"
         style="-inkscape-font-specification:'Figtree Ultra-Bold';fill:#2f4a75;stroke-width:1.177;stroke-linecap:square"
         d="m 751.25107,3935.6303 q -0.8636,0 -1.65946,-0.2201 -0.77893,-0.2371 -1.4224,-0.6266 -0.62653,-0.4064 -1.03293,-0.8974 -0.4064,-0.508 -0.508,-1.0838 l 2.69239,-0.762 q 0.18627,0.4911 0.64347,0.8636 0.47412,0.3556 1.18533,0.3726 0.69427,0.017 1.15147,-0.3218 0.47413,-0.3386 0.47413,-0.8805 0,-0.4233 -0.33867,-0.7451 -0.32173,-0.3217 -0.93133,-0.491 l -1.6764,-0.4234 q -0.88053,-0.2201 -1.54093,-0.6942 -0.64346,-0.4741 -1.01599,-1.1515 -0.3556,-0.6942 -0.3556,-1.5748 0,-1.7102 1.13453,-2.6585 1.13453,-0.9652 3.20039,-0.9652 1.13453,0 1.9812,0.3217 0.84666,0.3048 1.43933,0.9144 0.6096,0.6096 0.9652,1.524 l -2.67547,0.7959 q -0.13546,-0.4572 -0.59266,-0.8297 -0.44027,-0.3726 -1.15147,-0.3726 -0.71119,0 -1.11759,0.3218 -0.38947,0.3217 -0.38947,0.9313 0,0.4233 0.32173,0.7112 0.32174,0.2709 0.88054,0.4064 l 1.67639,0.4233 q 1.43933,0.3556 2.2352,1.3378 0.8128,0.9651 0.8128,2.2013 0,1.1176 -0.52494,1.9134 -0.508,0.7959 -1.49013,1.2362 -0.98213,0.4233 -2.37066,0.4233 z m 6.08178,-11.3112 v 2.6412 h -1.32084 v 2.2184 h 1.32084 v 3.6748 c 0,0.8918 0.2427,1.5801 0.72812,2.0655 0.49671,0.4741 1.24735,0.7115 2.25207,0.7115 v -5e-4 c 0.34996,0 0.71113,-0.073 1.08365,-0.2201 0.38383,-0.1581 0.71144,-0.3499 0.98236,-0.5757 l -0.91467,-1.9306 c -0.11289,0.079 -0.23712,0.1469 -0.37258,0.2036 -0.13546,0.045 -0.25393,0.068 -0.35554,0.068 -0.25964,0 -0.4515,-0.079 -0.57568,-0.2372 -0.12417,-0.1581 -0.18603,-0.406 -0.18603,-0.7447 v -3.0143 h 1.93012 v -2.2184 h -1.93012 v -2.6412 z m 23.23595,11.3112 q -1.35465,0 -2.42146,-0.5588 -1.04987,-0.5757 -1.64253,-1.5748 -0.59267,-1.016 -0.59267,-2.3029 0,-1.3039 0.59267,-2.3029 0.59267,-0.9991 1.6256,-1.5579 1.04986,-0.5757 2.40453,-0.5757 1.30386,0 2.3876,0.6604 1.08372,0.6604 1.55786,1.9134 l -2.50612,0.8467 q -0.18628,-0.4064 -0.62654,-0.6604 -0.42333,-0.2709 -0.94826,-0.2709 -0.52494,0 -0.93133,0.254 -0.38947,0.237 -0.62654,0.6773 -0.22013,0.4402 -0.22013,1.016 0,0.5757 0.22013,1.016 0.23707,0.4233 0.64347,0.6773 0.42333,0.254 0.94826,0.254 0.52494,0 0.94827,-0.2709 0.42332,-0.271 0.62653,-0.7112 l 2.50613,0.8466 q -0.49108,1.27 -1.5748,1.9474 -1.06679,0.6773 -2.37067,0.6773 z m 4.32066,-12.0564 v 11.853 h 2.6417 v -2.0334 l 0.7705,-0.8759 2.0407,2.9093 h 3.06493 l -3.43338,-4.8121 3.21324,-3.6545 h -3.09903 l -2.55696,2.8623 v -6.2487 z m 12.72289,11.8532 v -11.8533 h 2.9972 l 3.14959,4.6736 3.16653,-4.6736 h 2.99719 v 11.8533 h -2.72626 v -7.62 l -3.42053,5.0123 -3.43746,-5.0123 v 7.62 z m 17.79705,-8.6699 c -0.64346,0 -1.208,0.1017 -1.69344,0.3049 -0.48542,0.2032 -0.89743,0.4742 -1.23609,0.8129 -0.32737,0.3386 -0.59263,0.7166 -0.79583,1.1342 l 2.31977,0.7623 c 0.16932,-0.2484 0.37271,-0.446 0.60978,-0.5928 0.23706,-0.1467 0.51331,-0.2201 0.8294,-0.2201 0.39512,0 0.69443,0.096 0.89762,0.2878 0.21449,0.1806 0.35549,0.4401 0.42323,0.7788 0.0261,0.1118 0.0461,0.232 0.0636,0.3561 h -2.04484 c -1.03856,0 -1.84529,0.2196 -2.42103,0.6599 -0.57574,0.4402 -0.86404,1.1065 -0.86404,1.9983 0,0.8354 0.27678,1.4791 0.82993,1.9306 0.55316,0.4403 1.32634,0.6604 2.31975,0.6604 0.98214,0 1.71023,-0.3108 2.18437,-0.9317 0.033,-0.042 0.0648,-0.086 0.0956,-0.1302 l 0.0398,0.8583 h 2.47219 l 0.0341,-4.7242 c 0,-0.8015 -0.15254,-1.4955 -0.45734,-2.0826 -0.3048,-0.587 -0.7619,-1.0446 -1.3715,-1.372 -0.6096,-0.3273 -1.35446,-0.4909 -2.235,-0.4909 z m 0.35554,5.334 h 1.11725 v 0.015 c -0.003,0.2655 -0.0755,0.5149 -0.21964,0.7478 -0.13545,0.237 -0.32784,0.4288 -0.57619,0.5756 -0.23707,0.1355 -0.51908,0.2031 -0.84645,0.2031 -0.32737,0 -0.58686,-0.057 -0.77877,-0.1695 -0.18062,-0.1241 -0.2713,-0.2877 -0.2713,-0.4909 0,-0.2823 0.12423,-0.4966 0.37258,-0.6434 0.24836,-0.158 0.64936,-0.2372 1.20252,-0.2372 z m 10.31255,-5.334 c -0.6209,0 -1.16867,0.1636 -1.64279,0.4909 -0.2902,0.2053 -0.54283,0.4708 -0.75759,0.7958 l -0.10593,-1.0836 h -2.48926 v 8.4666 h 2.6417 v -4.47 c 0,-0.587 0.12949,-1.0216 0.38913,-1.3038 0.25963,-0.2936 0.64386,-0.435 1.15187,-0.4237 0.27092,0.011 0.49633,0.079 0.67696,0.2031 0.19192,0.1242 0.33868,0.3218 0.44028,0.5927 0.10161,0.2596 0.15245,0.6155 0.15245,1.0671 v 4.3346 h 2.6417 v -4.3346 -0.4914 c 0,-0.8806 -0.11847,-1.6029 -0.35554,-2.1673 -0.22578,-0.5645 -0.57016,-0.9822 -1.03301,-1.2532 -0.46285,-0.2822 -1.03265,-0.4232 -1.70997,-0.4232 z m 39.60689,0.1695 c -0.6096,0 -1.19669,0.1525 -1.76115,0.4573 -0.47995,0.2645 -0.89212,0.6435 -1.2361,1.1374 v -1.5611 h -2.6417 v 8.4666 h 2.6417 v -4.3516 c 0,-0.3612 0.14101,-0.6548 0.42323,-0.8806 0.28224,-0.2371 0.64917,-0.4122 1.10072,-0.525 0.46283,-0.1129 0.954,-0.169 1.4733,-0.169 z m -95.82982,-2.1244 -1.06867,1.835 a 4.5716583,4.5716583 0 0 0 -0.015,0 c -0.26229,0.019 -0.52424,0.062 -0.78651,0.1328 -0.10903,0.031 -0.21579,0.067 -0.32194,0.107 a 4.5716583,4.5716583 0 0 0 -0.65112,0.2785 l -1.89447,-0.9762 -1.14928,1.201 1.05317,1.8402 a 4.5716583,4.5716583 0 0 0 -0.44339,1.8056 l -1.7849,1.1472 0.4656,1.5952 2.11925,0.01 a 4.5716583,4.5716583 0 0 0 0.60823,0.7157 4.5716583,4.5716583 0 0 0 0.73381,0.5576 l 0.10283,2.1332 1.61437,0.3943 1.06817,-1.8351 a 4.5716583,4.5716583 0 0 0 0.1204,-0.019 c 0.10925,-0.012 0.21795,-0.028 0.3266,-0.049 a 4.5716583,4.5716583 0 0 0 1.32859,-0.4527 l 1.89549,0.9757 1.14773,-1.2005 -1.05729,-1.8474 a 4.5716583,4.5716583 0 0 0 0.39325,-1.3177 c 0.0162,-0.1097 0.029,-0.2192 0.0357,-0.3292 a 4.5716583,4.5716583 0 0 0 0.0155,-0.1488 l 1.78853,-1.1504 -0.46664,-1.5916 -2.13216,-0.01 a 4.5716583,4.5716583 0 0 0 -0.59532,-0.7157 4.5716583,4.5716583 0 0 0 -0.73381,-0.5576 l -0.10283,-2.1332 z m -0.70899,3.8359 a 2.5417628,2.5524223 0 0 1 2.54196,2.5528 2.5417628,2.5524223 0 0 1 -2.54196,2.5523 2.5417628,2.5524223 0 0 1 -2.54146,-2.5523 2.5417628,2.5524223 0 0 1 2.54146,-2.5528 z m 74.50862,-1.881 c -0.79022,0 -1.47325,0.1809 -2.04896,0.5421 -0.56444,0.35 -1.00478,0.8463 -1.32086,1.4898 -0.3048,0.6435 -0.45733,1.4167 -0.45733,2.3198 0,0.824 0.15253,1.5353 0.45733,2.1337 0.31608,0.5983 0.75642,1.0612 1.32086,1.3885 0.57571,0.3162 1.25874,0.4744 2.04896,0.4744 0.65475,0 1.21878,-0.1582 1.69293,-0.4744 0.33712,-0.2273 0.61874,-0.5186 0.84696,-0.8712 v 0.8035 c 0,0.4854 -0.0902,0.8864 -0.27077,1.2025 -0.16935,0.3274 -0.41205,0.5643 -0.72812,0.7111 -0.3048,0.158 -0.65497,0.2372 -1.05007,0.2372 -0.50801,0 -0.94255,-0.045 -1.3038,-0.1354 -0.36123,-0.09 -0.66631,-0.1977 -0.91468,-0.3219 -0.24836,-0.1129 -0.46275,-0.2089 -0.64337,-0.2879 l -1.033,2.0996 c 0.23707,0.1806 0.53638,0.3442 0.89761,0.491 0.36126,0.1467 0.7958,0.2657 1.3038,0.356 0.51927,0.09 1.12315,0.1354 1.81178,0.1354 0.97083,0 1.79486,-0.1866 2.47219,-0.5591 0.67734,-0.3612 1.1968,-0.8859 1.55806,-1.5746 0.36123,-0.6886 0.54207,-1.5069 0.54207,-2.4552 v -7.5018 h -2.6417 v 1.2903 c -0.22823,-0.3901 -0.50981,-0.7082 -0.84696,-0.9513 -0.47415,-0.3612 -1.03818,-0.5421 -1.69293,-0.5421 z m 0.76171,2.3709 c 0.33866,0 0.62644,0.079 0.86351,0.2367 0.24836,0.158 0.44021,0.3782 0.57568,0.6604 0.13546,0.2822 0.20361,0.6156 0.20361,0.9994 0,0.3613 -0.0682,0.6826 -0.20361,0.9648 -0.12418,0.2823 -0.31027,0.5082 -0.55863,0.6775 -0.23706,0.158 -0.52484,0.2372 -0.86351,0.2372 -0.32736,0 -0.62091,-0.079 -0.88057,-0.2372 -0.25964,-0.1693 -0.46301,-0.3952 -0.60978,-0.6775 -0.13549,-0.2822 -0.20886,-0.6035 -0.22013,-0.9648 0.0113,-0.3838 0.0847,-0.7172 0.22013,-0.9994 0.14677,-0.2822 0.34438,-0.5024 0.59274,-0.6604 0.25964,-0.1581 0.55318,-0.2367 0.88056,-0.2367 z m 10.24485,-2.3709 c -0.89181,0 -1.68229,0.1866 -2.37091,0.5591 -0.67733,0.3726 -1.20781,0.8916 -1.59163,1.5576 -0.38382,0.666 -0.57569,1.4392 -0.57569,2.3197 0,0.8805 0.19187,1.6538 0.57569,2.3198 0.38382,0.666 0.9143,1.1855 1.59163,1.558 0.67733,0.3725 1.45628,0.5591 2.33681,0.5591 0.59831,0 1.16287,-0.079 1.69343,-0.2371 0.53059,-0.1694 0.99921,-0.4294 1.4056,-0.7793 0.41769,-0.35 0.73954,-0.7955 0.96532,-1.3374 l -2.35387,-0.7958 c -0.11289,0.2822 -0.31051,0.5191 -0.59272,0.711 -0.28223,0.1806 -0.63238,0.2708 -1.05007,0.2708 -0.34995,0 -0.66603,-0.073 -0.94826,-0.2201 -0.28221,-0.1581 -0.50238,-0.3835 -0.66043,-0.677 -0.11225,-0.2085 -0.184,-0.4405 -0.21651,-0.6945 h 6.05854 c 0,-1.1176 -0.19186,-2.0544 -0.57568,-2.8107 -0.37254,-0.7677 -0.88047,-1.3437 -1.52393,-1.7275 -0.64346,-0.3838 -1.36581,-0.5757 -2.16732,-0.5757 z m -0.0847,1.9983 c 0.24837,0 0.49105,0.056 0.72812,0.169 0.24835,0.1129 0.457,0.2938 0.62632,0.5421 0.1693,0.2371 0.25426,0.57 0.25426,0.9989 h -3.26802 c 0,-0.4289 0.0844,-0.7618 0.25372,-0.9989 0.18063,-0.2483 0.39502,-0.4292 0.64337,-0.5421 0.25964,-0.1133 0.51389,-0.169 0.76223,-0.169 z m -19.69341,-1.9983 c -0.89183,0 -1.68231,0.1866 -2.37092,0.5591 -0.67733,0.3726 -1.20781,0.8916 -1.59163,1.5576 -0.38382,0.666 -0.57568,1.4392 -0.57568,2.3197 0,0.8805 0.19186,1.6538 0.57568,2.3198 0.38382,0.666 0.9143,1.1855 1.59163,1.558 0.67734,0.3725 1.45629,0.5591 2.33681,0.5591 0.59832,0 1.16287,-0.079 1.69344,-0.2371 0.53058,-0.1694 0.9992,-0.4294 1.4056,-0.7793 0.41768,-0.35 0.73953,-0.7955 0.96531,-1.3374 l -2.35386,-0.7958 c -0.11289,0.2822 -0.31051,0.5191 -0.59273,0.711 -0.28222,0.1806 -0.63237,0.2708 -1.05006,0.2708 -0.34995,0 -0.66604,-0.073 -0.94826,-0.2201 -0.28222,-0.1581 -0.50238,-0.3835 -0.66043,-0.677 -0.11225,-0.2085 -0.184,-0.4405 -0.21652,-0.6945 h 6.05854 c 0,-1.1176 -0.19185,-2.0544 -0.57567,-2.8107 -0.37254,-0.7677 -0.88048,-1.3437 -1.52394,-1.7275 -0.64346,-0.3838 -1.3658,-0.5757 -2.16731,-0.5757 z m -0.0848,1.9983 c 0.24836,0 0.49105,0.056 0.72812,0.169 0.24835,0.1129 0.45699,0.2938 0.62632,0.5421 0.1693,0.2371 0.25424,0.57 0.25424,0.9989 h -3.26802 c 0,-0.4289 0.0844,-0.7618 0.25374,-0.9989 0.18061,-0.2483 0.395,-0.4292 0.64337,-0.5421 0.25964,-0.1133 0.51387,-0.169 0.76223,-0.169 z" />
      <g
         id="g9"
         transform="translate(-2.7981507,172.40618)">
        <path
           id="path7"
           style="fill:#0054db;fill-opacity:1;stroke:none;stroke-width:0.410626;stroke-linecap:square;stroke-dasharray:none;stroke-opacity:1"
           d="m 728.80513,3747.8601 -2.49442,0.7261 -0.015,3.3279 a 7.148014,7.148014 0 0 0 -2.00763,2.0831 l -3.32021,0.1571 -0.61857,2.5234 2.88045,1.6795 a 7.148014,7.148014 0 0 0 0.24443,1.435 7.148014,7.148014 0 0 0 0.55707,1.3296 l -1.53117,2.9668 1.87637,1.7973 2.88302,-1.648 a 7.148014,7.148014 0 0 0 2.80914,0.6858 l 1.80092,2.805 2.49494,-0.7266 0.0145,-3.328 a 7.148014,7.148014 0 0 0 2.00763,-2.083 l 3.32072,-0.1566 0.61805,-2.5234 -2.87992,-1.6795 a 7.148014,7.148014 0 0 0 -0.24495,-1.435 7.148014,7.148014 0 0 0 -0.54725,-1.3482 l 1.52135,-2.9487 -1.87585,-1.7973 -2.87735,1.6443 a 7.148014,7.148014 0 0 0 -2.82256,-0.6935 z m 1.04541,4.3465 a 5.6090463,5.6090463 0 0 1 0.16433,0 5.6090463,5.6090463 0 0 0 -0.27543,0.019 5.6090463,5.6090463 0 0 1 0.1111,-0.021 z m 0.92914,0.01 a 5.6090463,5.6090463 0 0 1 0.24857,0.019 5.6090463,5.6090463 0 0 0 -0.24857,-0.019 z m 1.20716,0.2201 a 5.6090463,5.6090463 0 0 1 0.16537,0.062 5.6090463,5.6090463 0 0 0 -0.16537,-0.062 z m -4.13049,0.338 a 5.6090463,5.6090463 0 0 0 -0.24702,0.1338 5.6090463,5.6090463 0 0 1 0.24702,-0.1338 z m 5.04775,0.046 a 5.6090463,5.6090463 0 0 1 0.25167,0.1379 5.6090463,5.6090463 0 0 0 -0.25167,-0.1379 z m -5.93142,0.5028 a 5.6090463,5.6090463 0 0 0 -0.20257,0.1509 5.6090463,5.6090463 0 0 1 0.20257,-0.1509 z m 3.50056,0.086 a 4.3866649,4.3866649 0 0 1 4.07624,3.1584 4.3866649,4.3866649 0 0 1 -2.98587,5.4384 4.3866649,4.3866649 0 0 1 -5.43791,-2.9863 4.3866649,4.3866649 0 0 1 2.98587,-5.4379 4.3866649,4.3866649 0 0 1 1.36167,-0.1726 z m 3.36569,0.017 a 5.6090463,5.6090463 0 0 1 0.13177,0.099 5.6090463,5.6090463 0 0 0 -0.13177,-0.099 z m -7.768,0.7328 a 5.6090463,5.6090463 0 0 0 -0.10594,0.1405 5.6090463,5.6090463 0 0 1 0.10594,-0.1405 z m 8.58604,0.068 a 5.6090463,5.6090463 0 0 1 0.15089,0.2025 5.6090463,5.6090463 0 0 0 -0.15089,-0.2025 z m -9.155,0.7493 a 5.6090463,5.6090463 0 0 0 -0.13694,0.2485 5.6090463,5.6090463 0 0 1 0.13694,-0.2485 z m 9.72085,0.09 a 5.6090463,5.6090463 0 0 1 0.13385,0.247 5.6090463,5.6090463 0 0 0 -0.13385,-0.247 z m -10.18129,0.9162 a 5.6090463,5.6090463 0 0 0 -0.061,0.1623 5.6090463,5.6090463 0 0 1 0.061,-0.1623 z m 10.76317,0.5648 a 5.6090463,5.6090463 0 0 1 0.0207,0.095 5.6090463,5.6090463 0 0 0 -0.0207,-0.095 z m 0.0646,0.3308 a 5.6090463,5.6090463 0 0 1 0.0176,0.1064 5.6090463,5.6090463 0 0 0 -0.0176,-0.1064 z m -11.0908,0.2253 a 5.6090463,5.6090463 0 0 0 -0.0186,0.2486 5.6090463,5.6090463 0 0 1 0.0186,-0.2486 z m 11.1404,0.1483 a 5.6090463,5.6090463 0 0 1 0.009,0.1054 5.6090463,5.6090463 0 0 0 -0.009,-0.1054 z m 0.0243,0.3881 a 5.6090463,5.6090463 0 0 1 0.002,0.09 5.6090463,5.6090463 0 0 0 -0.002,-0.09 z m -0.002,0.3447 a 5.6090463,5.6090463 0 0 1 -0.003,0.09 5.6090463,5.6090463 0 0 0 0.003,-0.09 z m -11.19001,0.1297 a 5.6090463,5.6090463 0 0 0 0.0191,0.2811 5.6090463,5.6090463 0 0 1 -0.0191,-0.2811 z m 11.16572,0.2403 a 5.6090463,5.6090463 0 0 1 -0.0134,0.1162 5.6090463,5.6090463 0 0 0 0.0134,-0.1162 z m -0.0501,0.3715 a 5.6090463,5.6090463 0 0 1 -0.0217,0.1184 5.6090463,5.6090463 0 0 0 0.0217,-0.1184 z m -0.0661,0.3297 a 5.6090463,5.6090463 0 0 1 -0.0269,0.1142 5.6090463,5.6090463 0 0 0 0.0269,-0.1142 z m -0.22272,0.7343 a 5.6090463,5.6090463 0 0 1 -0.0403,0.1003 5.6090463,5.6090463 0 0 0 0.0403,-0.1003 z m -0.13074,0.3132 a 5.6090463,5.6090463 0 0 1 -0.0476,0.1028 5.6090463,5.6090463 0 0 0 0.0476,-0.1028 z m -10.12859,0.1731 a 5.6090463,5.6090463 0 0 0 0.1323,0.2439 5.6090463,5.6090463 0 0 1 -0.1323,-0.2439 z m 9.9596,0.17 a 5.6090463,5.6090463 0 0 1 -0.0475,0.086 5.6090463,5.6090463 0 0 0 0.0475,-0.086 z m -0.19275,0.3318 a 5.6090463,5.6090463 0 0 1 -0.0548,0.084 5.6090463,5.6090463 0 0 0 0.0548,-0.084 z m -0.18707,0.2775 a 5.6090463,5.6090463 0 0 1 -0.0661,0.091 5.6090463,5.6090463 0 0 0 0.0661,-0.091 z m -9.03045,0.1049 a 5.6090463,5.6090463 0 0 0 0.14934,0.2005 5.6090463,5.6090463 0 0 1 -0.14934,-0.2005 z m 8.79481,0.2031 a 5.6090463,5.6090463 0 0 1 -0.0594,0.071 5.6090463,5.6090463 0 0 0 0.0594,-0.071 z m -0.24753,0.2796 a 5.6090463,5.6090463 0 0 1 -0.076,0.078 5.6090463,5.6090463 0 0 0 0.076,-0.078 z m -0.2465,0.2449 a 5.6090463,5.6090463 0 0 1 -0.0718,0.067 5.6090463,5.6090463 0 0 0 0.0718,-0.067 z m -7.46828,0.1716 a 5.6090463,5.6090463 0 0 0 0.14625,0.1095 5.6090463,5.6090463 0 0 1 -0.14625,-0.1095 z m 7.17786,0.083 a 5.6090463,5.6090463 0 0 1 -0.076,0.06 5.6090463,5.6090463 0 0 0 0.076,-0.06 z m -0.28422,0.2165 a 5.6090463,5.6090463 0 0 1 -0.11266,0.077 5.6090463,5.6090463 0 0 0 0.11266,-0.077 z m -0.27957,0.186 a 5.6090463,5.6090463 0 0 1 -0.11162,0.069 5.6090463,5.6090463 0 0 0 0.11162,-0.069 z m -5.79758,0.083 a 5.6090463,5.6090463 0 0 0 0.2558,0.1401 5.6090463,5.6090463 0 0 1 -0.2558,-0.1401 z m 5.47615,0.1044 a 5.6090463,5.6090463 0 0 1 -0.14056,0.072 5.6090463,5.6090463 0 0 0 0.14056,-0.072 z m -0.3545,0.1752 a 5.6090463,5.6090463 0 0 1 -0.11317,0.049 5.6090463,5.6090463 0 0 0 0.11317,-0.049 z m -0.32194,0.1323 a 5.6090463,5.6090463 0 0 1 -0.10336,0.039 5.6090463,5.6090463 0 0 0 0.10336,-0.039 z m -3.80649,0.044 a 5.6090463,5.6090463 0 0 0 0.18139,0.068 5.6090463,5.6090463 0 0 1 -0.18139,-0.068 z m 3.44682,0.079 a 5.6090463,5.6090463 0 0 1 -0.0522,0.017 5.6090463,5.6090463 0 0 1 -0.0181,0 5.6090463,5.6090463 0 0 0 0.0181,0 5.6090463,5.6090463 0 0 0 0.0522,-0.016 z m -2.31045,0.1901 a 5.6090463,5.6090463 0 0 0 0.24804,0.019 5.6090463,5.6090463 0 0 1 -0.24804,-0.019 z m 1.29139,0.01 a 5.6090463,5.6090463 0 0 1 -0.2806,0.019 5.6090463,5.6090463 0 0 0 0.2806,-0.019 z" />
        <path
           id="path8"
           style="fill:#0054db;fill-opacity:1;stroke:none;stroke-width:0.318712;stroke-linecap:square;stroke-dasharray:none;stroke-opacity:1"
           d="m 717.12109,3744.8727 -1.6397,1.9823 a 5.5480189,5.5480189 0 0 0 -1.13946,0.018 5.5480189,5.5480189 0 0 0 -1.08831,0.2584 l -2.07946,-1.5431 -1.61334,1.2098 0.89814,2.4164 a 5.5480189,5.5480189 0 0 0 -0.88005,2.0644 l -2.37557,1.0253 0.24082,2.0019 2.54713,0.4315 a 5.5480189,5.5480189 0 0 0 1.34204,1.8004 l -0.29921,2.5632 1.85467,0.7922 1.65002,-1.9937 a 5.5480189,5.5480189 0 0 0 1.12913,-0.01 5.5480189,5.5480189 0 0 0 1.08883,-0.2584 l 2.07894,1.5472 1.61334,-1.2103 -0.89814,-2.4153 a 5.5480189,5.5480189 0 0 0 0.88005,-2.0655 l 2.37557,-1.0248 -0.24133,-2.0024 -2.5368,-0.4295 a 5.5480189,5.5480189 0 0 0 -1.35134,-1.8071 l 0.29818,-2.558 z m -1.78336,3.1714 a 4.3535298,4.3535298 0 0 1 0.13539,0.024 4.35322,4.35322 0 0 0 -0.23099,-0.022 4.3535298,4.3535298 0 0 1 0.0956,0 z m -0.83354,0.018 a 4.35322,4.35322 0 0 0 -0.0196,0 4.35322,4.35322 0 0 0 -0.60978,0.1184 v -6e-4 a 4.35322,4.35322 0 0 0 -0.0341,0.012 4.3535298,4.3535298 0 0 1 0.0336,-0.012 l 5.1e-4,5e-4 a 4.3535298,4.3535298 0 0 1 0.60978,-0.1183 4.3535298,4.3535298 0 0 1 0.0196,-5e-4 z m 1.53066,0.1049 a 4.3535298,4.3535298 0 0 1 0.20722,0.05 4.35322,4.35322 0 0 0 -0.20722,-0.05 z m -2.82412,0.2573 a 4.35322,4.35322 0 0 0 -0.20309,0.1049 4.3535298,4.3535298 0 0 1 0.20309,-0.1049 z m 3.73156,0.065 a 4.3535298,4.3535298 0 0 1 0.12867,0.074 4.35322,4.35322 0 0 0 -0.12867,-0.074 z m -4.35529,0.2863 a 4.35322,4.35322 0 0 0 -0.20878,0.1494 4.3535298,4.3535298 0 0 1 0.20878,-0.1494 z m 5.00589,0.1215 a 4.3535298,4.3535298 0 0 1 0.18604,0.1457 4.35322,4.35322 0 0 0 -0.18604,-0.1457 z m -2.46135,0.086 a 3.4045214,3.4045214 0 0 1 3.25355,2.9951 3.4045214,3.4045214 0 0 1 -2.97294,3.7869 3.4045214,3.4045214 0 0 1 -3.78737,-2.973 3.4045214,3.4045214 0 0 1 2.49649,-3.6948 v -5e-4 a 3.4045214,3.4045214 0 0 1 0.47646,-0.092 3.4045214,3.4045214 0 0 1 0.53381,-0.022 z m -3.1166,0.2532 a 4.35322,4.35322 0 0 0 -0.17312,0.1653 4.3535298,4.3535298 0 0 1 0.17312,-0.1653 z m 6.2053,0.2289 a 4.3535298,4.3535298 0 0 1 0.11059,0.1152 4.35322,4.35322 0 0 0 -0.11059,-0.1152 z m -6.79751,0.4506 a 4.35322,4.35322 0 0 0 -0.0444,0.066 4.3535298,4.3535298 0 0 1 0.0444,-0.066 z m 7.33857,0.2796 a 4.3535298,4.3535298 0 0 1 0.0941,0.1824 4.35322,4.35322 0 0 0 -0.0941,-0.1824 z m -7.70496,0.369 a 4.35322,4.35322 0 0 0 -0.0873,0.2191 4.3535298,4.3535298 0 0 1 0.0873,-0.2191 z m 8.03207,0.3431 a 4.3535298,4.3535298 0 0 1 0.0744,0.215 4.35322,4.35322 0 0 0 -0.0744,-0.215 z m -8.27288,0.3297 a 4.35322,4.35322 0 0 0 -0.062,0.2553 4.3535298,4.3535298 0 0 1 0.062,-0.2553 z m 8.50697,0.6051 a 4.3535298,4.3535298 0 0 1 0.005,0.022 4.3535298,4.3535298 0 0 1 0.005,0.057 4.35322,4.35322 0 0 0 -0.006,-0.057 4.35322,4.35322 0 0 0 -0.004,-0.022 z m -8.63978,0.1256 a 4.35322,4.35322 0 0 0 -0.0217,0.23 4.3535298,4.3535298 0 0 1 0.0217,-0.23 z m 8.66614,0.1462 a 4.3535298,4.3535298 0 0 1 0.004,0.091 4.35322,4.35322 0 0 0 -0.004,-0.091 z m 0.008,0.262 a 4.3535298,4.3535298 0 0 1 -5.1e-4,0.09 4.35322,4.35322 0 0 0 5.1e-4,-0.09 z m -0.009,0.2905 a 4.3535298,4.3535298 0 0 1 -0.008,0.1013 4.35322,4.35322 0 0 0 0.008,-0.1013 z m -8.66613,0.2118 a 4.35322,4.35322 0 0 0 0.002,0.027 4.35322,4.35322 0 0 0 0.003,0.015 4.3535298,4.3535298 0 0 1 -0.003,-0.015 4.3535298,4.3535298 0 0 1 -10e-4,-0.026 z m 8.63616,0.091 a 4.3535298,4.3535298 0 0 1 -0.0114,0.077 4.35322,4.35322 0 0 0 0.0114,-0.077 z m -0.0439,0.2615 a 4.3535298,4.3535298 0 0 1 -0.0171,0.083 4.35322,4.35322 0 0 0 0.0171,-0.083 z m -0.0636,0.2754 a 4.3535298,4.3535298 0 0 1 -0.0294,0.1039 4.35322,4.35322 0 0 0 0.0294,-0.1039 z m -8.36331,0.1416 a 4.35322,4.35322 0 0 0 0.0739,0.2129 4.3535298,4.3535298 0 0 1 -0.0739,-0.2129 z m 8.27495,0.1483 a 4.3535298,4.3535298 0 0 1 -0.0295,0.082 4.35322,4.35322 0 0 0 0.0295,-0.082 z m -0.0946,0.2501 a 4.3535298,4.3535298 0 0 1 -0.0336,0.08 4.35322,4.35322 0 0 0 0.0336,-0.08 z m -0.11782,0.261 a 4.3535298,4.3535298 0 0 1 -0.0496,0.097 4.35322,4.35322 0 0 0 0.0496,-0.097 z m -7.75509,0.084 a 4.35322,4.35322 0 0 0 0.0941,0.1824 4.3535298,4.3535298 0 0 1 -0.0941,-0.1824 z m 7.61556,0.1762 a 4.3535298,4.3535298 0 0 1 -0.0512,0.085 4.35322,4.35322 0 0 0 0.0512,-0.085 z m -0.14521,0.2326 a 4.3535298,4.3535298 0 0 1 -0.046,0.068 4.35322,4.35322 0 0 0 0.046,-0.068 z m -6.94428,0.3907 a 4.35322,4.35322 0 0 0 0.10284,0.108 4.3535298,4.3535298 0 0 1 -0.10284,-0.108 z m 6.5841,0.079 a 4.3535298,4.3535298 0 0 1 -0.0543,0.058 4.35322,4.35322 0 0 0 0.0543,-0.058 z m -0.18552,0.1959 a 4.3535298,4.3535298 0 0 1 -0.0481,0.047 4.35322,4.35322 0 0 0 0.0481,-0.047 z m -5.84512,0.264 a 4.35322,4.35322 0 0 0 0.17931,0.1411 4.3535298,4.3535298 0 0 1 -0.17931,-0.1411 z m 5.41103,0.1158 a 4.3535298,4.3535298 0 0 1 -0.076,0.056 4.35322,4.35322 0 0 0 0.076,-0.056 z m -0.21807,0.1555 a 4.3535298,4.3535298 0 0 1 -0.0713,0.047 4.35322,4.35322 0 0 0 0.0713,-0.047 z m -4.48293,0.2083 a 4.35322,4.35322 0 0 0 0.12196,0.07 4.3535298,4.3535298 0 0 1 -0.12196,-0.07 z m 3.96358,0.09 a 4.3535298,4.3535298 0 0 1 -0.0615,0.029 4.35322,4.35322 0 0 0 0.0615,-0.029 z m -0.23461,0.1049 a 4.3535298,4.3535298 0 0 1 -0.0765,0.032 4.35322,4.35322 0 0 0 0.0765,-0.032 z m -2.89956,0.1499 a 4.35322,4.35322 0 0 0 0.18707,0.045 4.3535298,4.3535298 0 0 1 -0.18707,-0.045 z m 2.34662,0.038 a 4.3535298,4.3535298 0 0 1 -0.0873,0.022 4.35322,4.35322 0 0 0 0.0873,-0.022 z m -0.2651,0.061 a 4.3535298,4.3535298 0 0 1 -0.0796,0.015 4.35322,4.35322 0 0 0 0.0796,-0.015 z m -1.30586,0.05 a 4.35322,4.35322 0 0 0 0.21032,0.02 4.3535298,4.3535298 0 0 1 -0.21032,-0.02 z" />
        <path
           id="path9"
           style="fill:#0054db;fill-opacity:1;stroke:none;stroke-width:0.29188;stroke-linecap:square;stroke-dasharray:none;stroke-opacity:1"
           d="m 716.71904,3758.4435 -1.83348,0.2175 -0.39842,2.3265 a 5.0809299,5.0809299 0 0 0 -1.6459,1.232 l -2.35282,-0.2786 -0.72813,1.6966 1.82005,1.5115 a 5.0809299,5.0809299 0 0 0 0.23564,2.0428 l -1.41386,1.8934 1.10535,1.4795 2.22261,-0.8217 a 5.0809299,5.0809299 0 0 0 0.89813,0.5137 5.0809299,5.0809299 0 0 0 0.98134,0.2951 l 0.93689,2.1807 1.834,-0.2176 0.39791,-2.3264 a 5.0809299,5.0809299 0 0 0 1.64589,-1.232 l 2.35231,0.2785 0.72864,-1.697 -1.81281,-1.5059 a 5.0809299,5.0809299 0 0 0 -0.24081,-2.052 l 1.4118,-1.8893 -1.10536,-1.4795 -2.20968,0.8165 a 5.0809299,5.0809299 0 0 0 -0.91106,-0.5085 5.0809299,5.0809299 0 0 0 -0.98133,-0.2956 z m 0.10697,3.162 a 3.9870051,3.9870051 0 0 1 0.11524,0.016 3.9870051,3.9870051 0 0 0 -0.23048,-0.011 3.9870051,3.9870051 0 0 1 0.11524,0 z m -0.56482,0.023 a 3.9870051,3.9870051 0 0 0 -0.20722,0.02 3.9870051,3.9870051 0 0 1 0.20722,-0.02 z m 1.125,0.054 a 3.9870051,3.9870051 0 0 1 0.20205,0.039 3.9870051,3.9870051 0 0 0 -0.20205,-0.039 z m 1.03456,0.3421 a 3.9870051,3.9870051 0 0 1 0.0512,0.026 3.9870051,3.9870051 0 0 0 -0.0512,-0.026 z m -3.58221,0.01 a 3.9870051,3.9870051 0 0 0 -0.1757,0.1013 3.9870051,3.9870051 0 0 1 0.1757,-0.1013 z m 3.80958,0.1173 a 3.9870051,3.9870051 0 0 1 0.0346,0.02 3.9870051,3.9870051 0 0 0 -0.0346,-0.02 z m -4.34702,0.2139 a 3.9870051,3.9870051 0 0 0 -0.19017,0.1488 3.9870051,3.9870051 0 0 1 0.19017,-0.1488 z m 4.77904,0.079 a 3.9870051,3.9870051 0 0 1 0.0558,0.044 3.9870051,3.9870051 0 0 0 -0.0558,-0.044 z m -2.51871,0.029 a 3.1181158,3.1181158 0 0 1 1.30121,0.2522 3.1181158,3.1181158 0 0 1 1.63504,4.0953 3.1181158,3.1181158 0 0 1 -4.09484,1.6351 3.1181158,3.1181158 0 0 1 -1.63555,-4.0954 3.1181158,3.1181158 0 0 1 1.91874,-1.741 3.1181158,3.1181158 0 0 1 0.8754,-0.1462 z m 2.69389,0.1158 a 3.9870051,3.9870051 0 0 1 0.0698,0.062 3.9870051,3.9870051 0 0 0 -0.0698,-0.062 z m -5.44256,0.1963 a 3.9870051,3.9870051 0 0 0 -0.16123,0.1685 3.9870051,3.9870051 0 0 1 0.16123,-0.1685 z m 5.83014,0.1923 a 3.9870051,3.9870051 0 0 1 0.0512,0.06 3.9870051,3.9870051 0 0 0 -0.0512,-0.06 z m 0.15554,0.1917 a 3.9870051,3.9870051 0 0 1 0.0424,0.055 3.9870051,3.9870051 0 0 0 -0.0424,-0.055 z m -6.41769,0.1318 a 3.9870051,3.9870051 0 0 0 -0.11318,0.1586 3.9870051,3.9870051 0 0 1 0.11318,-0.1586 z m 6.71586,0.3173 a 3.9870051,3.9870051 0 0 1 0.0346,0.062 3.9870051,3.9870051 0 0 0 -0.0346,-0.062 z m 0.11214,0.2118 a 3.9870051,3.9870051 0 0 1 0.0336,0.069 3.9870051,3.9870051 0 0 0 -0.0336,-0.069 z m 0.20671,0.5034 a 3.9870051,3.9870051 0 0 1 0.0212,0.067 3.9870051,3.9870051 0 0 0 -0.0212,-0.067 z m 0.0682,0.2299 a 3.9870051,3.9870051 0 0 1 0.0191,0.073 3.9870051,3.9870051 0 0 0 -0.0191,-0.073 z m -7.72614,0.1199 a 3.9870051,3.9870051 0 0 0 -0.0388,0.1995 3.9870051,3.9870051 0 0 1 0.0388,-0.1995 z m 7.78454,0.1292 a 3.9870051,3.9870051 0 0 1 0.0202,0.1116 3.9870051,3.9870051 0 0 0 -0.0202,-0.1116 z m 0.0444,0.2708 a 3.9870051,3.9870051 0 0 1 0.0109,0.096 3.9870051,3.9870051 0 0 0 -0.0109,-0.096 z m 0.0233,0.2429 a 3.9870051,3.9870051 0 0 1 0.005,0.087 3.9870051,3.9870051 0 0 0 -0.005,-0.087 z m -7.95042,0.093 a 3.9870051,3.9870051 0 0 0 -0.009,0.1767 3.9870051,3.9870051 0 0 1 0.009,-0.1767 z m 7.95921,0.1679 a 3.9870051,3.9870051 0 0 1 -0.002,0.1168 3.9870051,3.9870051 0 0 0 0.002,-0.1168 z m -0.009,0.2785 a 3.9870051,3.9870051 0 0 1 -0.009,0.1024 3.9870051,3.9870051 0 0 0 0.009,-0.1024 z m -0.0232,0.2305 a 3.9870051,3.9870051 0 0 1 -0.014,0.1039 3.9870051,3.9870051 0 0 0 0.014,-0.1039 z m -7.876,0.1933 a 3.9870051,3.9870051 0 0 0 0.031,0.1276 3.9870051,3.9870051 0 0 1 -0.031,-0.1276 z m 7.76748,0.3529 a 3.9870051,3.9870051 0 0 1 -0.0238,0.082 3.9870051,3.9870051 0 0 0 0.0238,-0.082 z m -0.0703,0.229 a 3.9870051,3.9870051 0 0 1 -0.0264,0.076 3.9870051,3.9870051 0 0 0 0.0264,-0.076 z m -7.50755,0.094 a 3.9870051,3.9870051 0 0 0 0.0796,0.2 3.9870051,3.9870051 0 0 1 -0.0796,-0.2 z m 0.34313,0.708 a 3.9870051,3.9870051 0 0 0 0.0646,0.1121 3.9870051,3.9870051 0 0 1 -0.0646,-0.1121 z m 6.71535,0.1028 a 3.9870051,3.9870051 0 0 1 -0.11524,0.1623 3.9870051,3.9870051 0 0 0 0.11524,-0.1623 z m -6.21822,0.5509 a 3.9870051,3.9870051 0 0 0 0.13332,0.1276 3.9870051,3.9870051 0 0 1 -0.13332,-0.1276 z m 5.75675,0.023 a 3.9870051,3.9870051 0 0 1 -0.12764,0.1334 3.9870051,3.9870051 0 0 0 0.12764,-0.1334 z m -5.21208,0.4512 a 3.9870051,3.9870051 0 0 0 0.16226,0.1152 3.9870051,3.9870051 0 0 1 -0.16226,-0.1152 z m 4.54442,0.1137 a 3.9870051,3.9870051 0 0 1 -0.11627,0.067 3.9870051,3.9870051 0 0 0 0.11627,-0.067 z m -0.6227,0.3297 a 3.9870051,3.9870051 0 0 1 -0.19947,0.079 3.9870051,3.9870051 0 0 0 0.19947,-0.079 z m -2.48254,0.2206 a 3.9870051,3.9870051 0 0 0 0.20413,0.04 3.9870051,3.9870051 0 0 1 -0.20413,-0.04 z m 1.74408,0.015 a 3.9870051,3.9870051 0 0 1 -0.14004,0.034 3.9870051,3.9870051 0 0 0 0.14004,-0.034 z m -1.01492,0.083 a 3.9870051,3.9870051 0 0 0 0.1881,0.01 3.9870051,3.9870051 0 0 1 -0.1881,-0.01 z" />
      </g>
    </g>
  </g>
</svg>
